# xmcd CD database file
#
# Track frame offsets:
#	150
#	14494
#	26746
#	37722
#	52088
#	65127
#	78274
#	91790
#	106379
#	119295
#	133519
#	149214
#	166337
#	180951
#	195270
#	208949
#	222769
#	233963
#	248233
#	260320
#
# Disc length: 3786 seconds
#
# Revision: 1
# Processed by: cddbd v1.5.1PL2 Copyright (c) Steve Scherf et al.
# Submitted via: CDex 1.51
#
DISCID=190ec814
DTITLE=Art Pepper - Chili Pepper
DYEAR=2001
DGENRE=Jazz
TTITLE0=The Count On Rush Street
TTITLE1=Pooch Mcgooch
TTITLE2=Brown Gold
TTITLE3=Holiday Flight
TTITLE4=Surf Ride
TTITLE5=Tickle Toe
TTITLE6=Chili Pepper
TTITLE7=Suzy The Poodle
TTITLE8=Straight Life
TTITLE9=Cinnamon
TTITLE10=Thyme Time
TTITLE11=The Way You Look Tonight
TTITLE12=Nutmeg
TTITLE13=Art's Oregano
TTITLE14=Over The Rainbow
TTITLE15=Popo
TTITLE16=Didi
TTITLE17=Sam And The Lady
TTITLE18=Apropos
TTITLE19=Art Pepper
EXTD=YEAR: 2001
EXTT0=
EXTT1=
EXTT2=
EXTT3=
EXTT4=
EXTT5=
EXTT6=
EXTT7=
EXTT8=
EXTT9=
EXTT10=
EXTT11=
EXTT12=
EXTT13=
EXTT14=
EXTT15=
EXTT16=
EXTT17=
EXTT18=
EXTT19=
PLAYORDER=
